<?xml version="1.0" encoding="iso-8859-1"?>
<!-- Generator: Adobe Illustrator 18.0.0, SVG Export Plug-In . SVG Version: 6.00 Build 0)  -->
<!DOCTYPE svg PUBLIC "-//W3C//DTD SVG 1.1//EN" "http://www.w3.org/Graphics/SVG/1.1/DTD/svg11.dtd">
<svg fill="#AAAAAA" version="1.1" id="Capa_1" xmlns="http://www.w3.org/2000/svg" xmlns:xlink="http://www.w3.org/1999/xlink" x="0px" y="0px"
	 viewBox="0 0 60 60" style="enable-background:new 0 0 60 60;" xml:space="preserve">
<g>
	<path d="M2,55.434C2,57.951,4.048,60,6.566,60h46.867C55.952,60,58,57.951,58,55.434V28H2V55.434z"/>
	<path d="M52.401,19L46.573,5.159C46.021,3.848,44.745,3,43.321,3h-1.463c-0.447-1.72-2-3-3.858-3H22c-1.858,0-3.411,1.28-3.858,3
		h-1.463c-1.423,0-2.7,0.848-3.252,2.159L7.599,19H0v8h60v-8H52.401z M9.769,19l5.501-13.065C15.509,5.367,16.062,5,16.679,5h1.463
		c0.447,1.72,2,3,3.858,3h16c1.858,0,3.411-1.28,3.858-3h1.463c0.617,0,1.169,0.367,1.408,0.935L50.231,19H9.769z"/>
</g>
<g>
</g>
<g>
</g>
<g>
</g>
<g>
</g>
<g>
</g>
<g>
</g>
<g>
</g>
<g>
</g>
<g>
</g>
<g>
</g>
<g>
</g>
<g>
</g>
<g>
</g>
<g>
</g>
<g>
</g>
</svg>
