<svg width="223.737" height="80.4" viewBox="0 0 223.737 80.4" xmlns="http://www.w3.org/2000/svg"><g id="svgGroup" stroke-linecap="round" fill-rule="evenodd" font-size="9pt" stroke="#000" stroke-width="0.25mm" fill="#333333" style="stroke:#000;stroke-width:0.25mm;fill:#333333"><path d="M 90.934 48.4 L 90.934 12.133 Q 90.934 9.554 90.624 8.573 A 2.028 2.028 0 0 0 90.534 8.333 A 2.649 2.649 0 0 0 90.203 7.788 A 1.806 1.806 0 0 0 89.4 7.2 Q 88.667 6.933 87.867 6.8 A 23.842 23.842 0 0 0 86.992 6.567 Q 86.11 6.351 85.5 6.29 A 4.42 4.42 0 0 0 85.067 6.267 A 0.154 0.154 0 0 1 84.943 6.182 Q 84.795 5.958 84.741 5.133 A 11.139 11.139 0 0 1 84.734 5 A 7.13 7.13 0 0 1 84.726 4.824 Q 84.695 3.714 85.067 3.467 Q 93.058 2.632 99.235 0.837 A 55.649 55.649 0 0 0 100.667 0.4 Q 101.86 0.002 101.999 0 A 0.095 0.095 0 0 1 102 0 Q 102.934 0.267 103.334 1.6 A 218.784 218.784 0 0 1 102.934 3.925 A 192.555 192.555 0 0 1 102.8 4.667 Q 102.468 6.33 102.412 9.284 A 65.982 65.982 0 0 0 102.4 10.533 L 102.4 28.933 Q 102.625 28.933 103.135 28.411 A 8.163 8.163 0 0 0 103.334 28.2 Q 104 27.467 105.467 26.333 Q 106.934 25.2 108.667 24.133 Q 111.835 22.385 114.645 22.07 A 10.936 10.936 0 0 1 115.867 22 A 14.691 14.691 0 0 1 118.41 22.209 Q 119.931 22.476 121.182 23.086 A 8.975 8.975 0 0 1 121.534 23.267 A 8.791 8.791 0 0 1 124.941 26.603 A 10.771 10.771 0 0 1 125.2 27.067 Q 127.015 30.697 127.377 38.516 A 90.083 90.083 0 0 1 127.467 42.667 L 127.467 48.4 A 172.907 172.907 0 0 0 127.481 50.701 Q 127.542 55.254 127.867 56.067 A 3.337 3.337 0 0 0 128.165 56.651 Q 128.507 57.176 129 57.4 A 10.531 10.531 0 0 0 129.836 57.735 A 13.933 13.933 0 0 0 130.667 58 A 19.571 19.571 0 0 0 132.804 58.241 A 16.853 16.853 0 0 0 133.734 58.267 A 1.859 1.859 0 0 1 133.862 58.619 Q 133.965 59.006 133.991 59.584 A 9.24 9.24 0 0 1 134 60 A 8.459 8.459 0 0 1 133.986 60.519 Q 133.939 61.275 133.743 61.585 A 0.715 0.715 0 0 1 133.734 61.6 A 157.901 157.901 0 0 0 128.987 61.194 Q 126.646 61.031 124.58 60.97 A 80.696 80.696 0 0 0 122.2 60.933 A 86.878 86.878 0 0 0 118.297 61.027 Q 116.132 61.125 113.693 61.324 A 167.882 167.882 0 0 0 110.667 61.6 A 1.077 1.077 0 0 1 110.544 61.331 Q 110.407 60.901 110.4 60.078 A 10.446 10.446 0 0 1 110.4 60 A 8.584 8.584 0 0 1 110.419 59.41 Q 110.471 58.658 110.667 58.267 A 16.931 16.931 0 0 0 112.045 58.215 Q 114.767 57.992 115.2 56.8 A 5.028 5.028 0 0 0 115.512 55.806 Q 116 53.608 116 48.4 L 116 41.467 Q 116 34.28 114.03 31.258 A 4.432 4.432 0 0 0 110.134 29.067 A 9.008 9.008 0 0 0 107.836 29.348 A 7.288 7.288 0 0 0 105.734 30.267 A 24.09 24.09 0 0 0 104.517 31.198 Q 102.4 32.938 102.4 34 L 102.4 48.4 A 172.907 172.907 0 0 0 102.414 50.701 Q 102.475 55.254 102.8 56.067 Q 103.2 57.067 103.867 57.4 Q 104.534 57.733 105.334 58 A 13.567 13.567 0 0 0 108 58.267 Q 108.382 58.776 108.339 59.894 A 6.479 6.479 0 0 1 108.334 60 A 9.308 9.308 0 0 1 108.291 60.519 Q 108.204 61.294 108 61.6 A 125.313 125.313 0 0 0 101.984 61.1 A 95.734 95.734 0 0 0 96.467 60.933 A 99.801 99.801 0 0 0 91.222 61.08 Q 88.075 61.246 84.534 61.6 A 1.077 1.077 0 0 1 84.411 61.331 Q 84.273 60.901 84.267 60.078 A 10.446 10.446 0 0 1 84.267 60 A 8.584 8.584 0 0 1 84.286 59.41 Q 84.338 58.658 84.534 58.267 A 20.849 20.849 0 0 0 85.974 58.221 Q 87.341 58.125 88.23 57.835 A 4.408 4.408 0 0 0 88.667 57.667 Q 89.749 57.179 90.041 56.824 A 0.507 0.507 0 0 0 90.134 56.667 A 6.331 6.331 0 0 0 90.621 55.296 Q 90.777 54.639 90.837 53.876 A 12.04 12.04 0 0 0 90.867 53.333 Q 90.934 51.333 90.934 48.4 Z M 63.6 58.4 Q 66.8 58.4 69.334 56.467 A 5.849 5.849 0 0 0 71.253 53.798 Q 71.867 52.164 71.867 49.867 A 7.609 7.609 0 0 0 71.053 46.551 Q 69.937 44.234 67.293 41.793 A 28.317 28.317 0 0 0 66.934 41.467 Q 64.934 39.6 62.667 38.133 A 147.529 147.529 0 0 1 59.546 36.059 A 126.705 126.705 0 0 1 58.4 35.267 Q 56.4 33.867 54.067 32.267 Q 51.734 30.667 49.867 28.667 A 15.418 15.418 0 0 1 46 18.133 A 13.229 13.229 0 0 1 49.517 9.145 A 19.759 19.759 0 0 1 52 6.8 A 19.779 19.779 0 0 1 64.8 2.267 A 33.226 33.226 0 0 1 69.896 2.645 A 28.641 28.641 0 0 1 72.067 3.067 Q 75.467 3.867 79.467 4.667 Q 79.867 8.133 80.067 11.733 A 636.298 636.298 0 0 0 80.284 15.433 A 745.959 745.959 0 0 0 80.534 19.333 Q 80 19.867 79.6 19.867 A 14.911 14.911 0 0 1 78.8 19.847 Q 77.614 19.783 77.179 19.51 A 0.488 0.488 0 0 1 76.934 19.2 Q 76.267 14.8 73.334 10.8 A 14.604 14.604 0 0 0 71.11 8.321 Q 68.445 6 65.2 6 Q 62.534 6 60.134 7.6 A 4.823 4.823 0 0 0 58.338 9.888 Q 57.734 11.391 57.734 13.6 Q 57.734 19.333 70.4 27.733 A 250.441 250.441 0 0 0 73.713 29.971 A 280.241 280.241 0 0 0 74.867 30.733 Q 77.2 32.267 79.067 34.267 A 16.772 16.772 0 0 1 83.329 45.444 A 21.38 21.38 0 0 1 83.334 45.867 A 13.976 13.976 0 0 1 78.657 56.473 A 19.255 19.255 0 0 1 77.334 57.6 Q 71.6 62.133 64.267 62.133 Q 56.534 62.133 47.467 59.733 A 268.174 268.174 0 0 1 46.863 56.425 Q 46.05 51.8 45.8 49.2 Q 45.477 45.839 45.342 44.859 A 12.516 12.516 0 0 0 45.334 44.8 Q 45.543 44.486 46.203 44.173 A 6.893 6.893 0 0 1 46.6 44 A 7.635 7.635 0 0 1 47.193 43.789 Q 47.788 43.606 48.236 43.6 A 2.261 2.261 0 0 1 48.267 43.6 A 0.988 0.988 0 0 1 48.583 43.647 Q 48.885 43.749 49.01 44.07 A 1.169 1.169 0 0 1 49.067 44.267 A 14.256 14.256 0 0 0 50.263 48.077 Q 51.425 50.575 53.6 53.2 A 18.41 18.41 0 0 0 56.676 56.053 Q 59.165 57.85 61.902 58.271 A 11.148 11.148 0 0 0 63.6 58.4 Z M 185.334 67.333 L 185.334 36.933 A 12.635 12.635 0 0 0 185.312 36.249 Q 185.259 35.267 185.067 33.733 Q 184.8 31.6 184.534 31.067 A 1.793 1.793 0 0 0 183.856 30.369 Q 182.826 29.722 180.5 29.507 A 21.568 21.568 0 0 0 180 29.467 A 32.167 32.167 0 0 1 179.721 29.419 Q 179.3 29.345 179.104 29.296 A 1.461 1.461 0 0 1 179 29.267 A 0.151 0.151 0 0 1 178.922 29.18 Q 178.816 28.955 178.802 28.171 A 13.894 13.894 0 0 1 178.8 27.933 Q 178.8 26.84 178.999 26.69 A 0.111 0.111 0 0 1 179.067 26.667 A 43.588 43.588 0 0 0 188.934 24.733 Q 192.89 23.47 195.306 22.432 A 28.659 28.659 0 0 0 196.267 22 A 1.673 1.673 0 0 1 196.826 22.263 Q 197.018 22.398 197.2 22.593 A 3.081 3.081 0 0 1 197.267 22.667 A 2.942 2.942 0 0 1 197.443 22.887 Q 197.675 23.21 197.675 23.447 A 0.44 0.44 0 0 1 197.667 23.533 Q 197.601 23.861 197.278 24.576 A 16.452 16.452 0 0 1 197.267 24.6 A 3.714 3.714 0 0 0 196.977 25.54 A 3.264 3.264 0 0 0 196.934 26.067 Q 196.934 26.723 197.04 26.952 A 0.363 0.363 0 0 0 197.067 27 A 0.064 0.064 0 0 0 197.124 27.029 Q 197.353 27.029 198.267 26 A 8.247 8.247 0 0 1 199.053 25.238 Q 199.934 24.48 201.313 23.609 A 34.035 34.035 0 0 1 201.867 23.267 A 10.608 10.608 0 0 1 207.467 21.733 A 12.685 12.685 0 0 1 211.715 22.49 A 16.066 16.066 0 0 1 213.667 23.333 Q 216.8 24.933 219.067 27.6 A 18.764 18.764 0 0 1 223.678 39.004 A 24.394 24.394 0 0 1 223.734 40.667 A 19.859 19.859 0 0 1 217.51 55.503 A 24.621 24.621 0 0 1 216.534 56.4 A 21.268 21.268 0 0 1 202.134 61.867 A 14.917 14.917 0 0 1 200.419 61.773 A 10.931 10.931 0 0 1 198.8 61.467 Q 197.481 61.107 197.132 61.071 A 0.653 0.653 0 0 0 197.067 61.067 Q 196.8 61.067 196.8 62.533 L 196.8 67.333 Q 196.8 73.733 197.467 75.6 A 1.404 1.404 0 0 0 198.125 76.309 Q 199.425 77.067 203.067 77.067 Q 203.449 77.576 203.405 78.694 A 6.479 6.479 0 0 1 203.4 78.8 A 9.308 9.308 0 0 1 203.358 79.319 Q 203.271 80.094 203.067 80.4 A 126.029 126.029 0 0 0 195.564 79.835 A 102.248 102.248 0 0 0 191.067 79.733 A 109.6 109.6 0 0 0 182.167 80.108 A 126.366 126.366 0 0 0 179.067 80.4 Q 178.8 80 178.734 78.8 Q 178.669 77.632 179.046 77.096 A 1.168 1.168 0 0 1 179.067 77.067 A 19.642 19.642 0 0 0 180.546 77.015 Q 182.059 76.9 183.067 76.533 Q 184.237 76.108 184.559 75.767 A 0.466 0.466 0 0 0 184.667 75.6 Q 185.246 73.979 185.322 68.939 A 106.433 106.433 0 0 0 185.334 67.333 Z M 26.934 59.733 L 26.934 58.267 A 1.061 1.061 0 0 0 26.927 58.146 Q 26.886 57.784 26.565 57.98 A 0.943 0.943 0 0 0 26.534 58 Q 26.205 58.219 25.425 58.709 A 188.834 188.834 0 0 1 25.067 58.933 Q 24.142 59.511 22.916 60.09 A 29.972 29.972 0 0 1 22.534 60.267 A 18.714 18.714 0 0 1 19.224 61.417 Q 17.493 61.834 15.826 61.834 A 13.167 13.167 0 0 1 9.867 60.4 Q 3.867 57.6 1.334 50.8 Q 0 47.467 0 42.733 Q 0 38 2.467 33.933 A 23.608 23.608 0 0 1 7.436 28.068 A 22.255 22.255 0 0 1 8.534 27.2 A 26.877 26.877 0 0 1 14.061 24.013 A 24.136 24.136 0 0 1 16.067 23.267 Q 20 22 22.934 22 A 102.845 102.845 0 0 1 23.954 22.005 Q 25.992 22.025 26.534 22.133 Q 26.903 22.133 26.931 20.428 A 17.784 17.784 0 0 0 26.934 20.133 L 26.934 12.133 A 23.886 23.886 0 0 0 26.891 10.664 Q 26.802 9.212 26.521 8.238 A 5.756 5.756 0 0 0 26.4 7.867 A 1.3 1.3 0 0 0 26.002 7.416 Q 25.377 6.95 23.963 6.672 A 12.392 12.392 0 0 0 23.934 6.667 A 46.306 46.306 0 0 0 23.034 6.501 Q 21.679 6.267 21.067 6.267 A 0.145 0.145 0 0 1 20.946 6.18 Q 20.811 5.953 20.801 5.133 A 11.087 11.087 0 0 1 20.8 5 Q 20.8 3.733 21.067 3.467 Q 28.534 2.8 33.2 1.4 Q 37.867 0 38.2 0.067 A 0.689 0.689 0 0 1 38.425 0.16 Q 38.664 0.308 38.934 0.667 A 2.961 2.961 0 0 1 39.127 0.956 Q 39.315 1.28 39.332 1.547 A 0.828 0.828 0 0 1 39.334 1.6 Q 38.4 5.333 38.4 10.4 L 38.4 51.733 Q 38.4 52.592 38.443 53.277 A 15.975 15.975 0 0 0 38.467 53.6 A 2.159 2.159 0 0 0 38.873 54.681 A 2.98 2.98 0 0 0 39.2 55.067 A 1.775 1.775 0 0 0 39.783 55.431 Q 40.735 55.824 42.754 55.863 A 23.592 23.592 0 0 0 43.2 55.867 A 2.247 2.247 0 0 1 43.373 56.355 Q 43.43 56.597 43.452 56.883 A 4.922 4.922 0 0 1 43.467 57.267 A 2.385 2.385 0 0 1 42.934 58.8 Q 40.534 58.933 36.134 60 Q 28.654 61.775 27.683 61.862 A 0.96 0.96 0 0 1 27.6 61.867 A 0.43 0.43 0 0 1 27.232 61.633 Q 26.992 61.253 26.945 60.257 A 11.13 11.13 0 0 1 26.934 59.733 Z M 157.334 21.867 Q 161.867 21.867 165.667 23.333 Q 169.467 24.8 172.267 27.467 A 18.699 18.699 0 0 1 177.997 41.074 A 24.331 24.331 0 0 1 178 41.467 Q 178 49.733 172 55.867 A 19.111 19.111 0 0 1 158.15 61.858 A 25.298 25.298 0 0 1 157.467 61.867 A 24.014 24.014 0 0 1 150.564 60.92 A 18.798 18.798 0 0 1 142.534 56.133 A 19.014 19.014 0 0 1 136.802 42.391 A 23.671 23.671 0 0 1 136.8 42.133 A 20.003 20.003 0 0 1 142.667 27.867 A 19.599 19.599 0 0 1 156.923 21.87 A 25.514 25.514 0 0 1 157.334 21.867 Z M 156.267 25.467 A 5.443 5.443 0 0 0 151.181 28.632 Q 149.97 30.904 149.64 34.806 A 31.418 31.418 0 0 0 149.6 35.333 A 53.567 53.567 0 0 0 149.334 40.667 Q 149.334 43.333 149.8 46.467 A 21.616 21.616 0 0 0 150.641 50.063 A 18.041 18.041 0 0 0 151.467 52.133 A 16.553 16.553 0 0 0 152.75 54.616 Q 155 58.133 158.267 58.133 A 5.817 5.817 0 0 0 163.673 54.902 Q 164.994 52.525 165.334 48.4 A 98.964 98.964 0 0 0 165.467 43.2 Q 165.467 40.533 164.934 37.333 A 23.902 23.902 0 0 0 164.123 33.944 A 19.194 19.194 0 0 0 163.2 31.6 Q 161.913 28.484 160.144 26.951 A 5.761 5.761 0 0 0 156.267 25.467 Z M 26.934 53.067 L 26.934 30.4 Q 26.934 29.393 25.526 28.246 A 10.154 10.154 0 0 0 24.934 27.8 A 7.609 7.609 0 0 0 20.467 26.4 A 8.708 8.708 0 0 0 18.856 26.54 Q 17.935 26.714 17.203 27.102 A 4.693 4.693 0 0 0 16.534 27.533 A 8.139 8.139 0 0 0 14.65 29.62 A 10.05 10.05 0 0 0 14.134 30.533 A 15.393 15.393 0 0 0 13.223 33.347 Q 12.555 36.261 12.534 40.332 A 51.56 51.56 0 0 0 12.534 40.6 Q 12.534 46.716 14.621 51.163 A 18.372 18.372 0 0 0 14.867 51.667 A 11.129 11.129 0 0 0 16.311 53.877 A 6.363 6.363 0 0 0 21.334 56.267 A 6.257 6.257 0 0 0 23.776 55.753 A 8.448 8.448 0 0 0 25.067 55.067 A 11.332 11.332 0 0 0 25.748 54.596 Q 26.74 53.85 26.902 53.282 A 0.783 0.783 0 0 0 26.934 53.067 Z M 196.8 30.667 L 196.8 52.8 A 6.004 6.004 0 0 0 196.992 54.365 A 4.04 4.04 0 0 0 198.667 56.733 A 8.921 8.921 0 0 0 199.927 57.454 Q 201.106 58 202.2 58 Q 203.867 58 205.334 57.2 A 6.749 6.749 0 0 0 206.817 56.087 Q 207.379 55.536 207.894 54.817 A 11.62 11.62 0 0 0 208 54.667 Q 210.747 50.964 211.034 45.122 A 28.371 28.371 0 0 0 211.067 43.733 A 37.949 37.949 0 0 0 210.809 39.164 Q 210.348 35.376 209.067 32.6 A 6.952 6.952 0 0 0 204.188 28.555 A 10.902 10.902 0 0 0 201.6 28.267 A 8.635 8.635 0 0 0 200.281 28.361 Q 199.585 28.469 199.028 28.7 A 3.629 3.629 0 0 0 198 29.333 A 19.999 19.999 0 0 0 197.6 29.698 Q 196.875 30.379 196.807 30.621 A 0.17 0.17 0 0 0 196.8 30.667 Z" vector-effect="non-scaling-stroke"/></g></svg>